<mxfile host="app.diagrams.net" agent="Mozilla/5.0 (Windows NT 10.0; Win64; x64) AppleWebKit/537.36 (KHTML, like Gecko) Chrome/127.0.0.0 Safari/537.36" version="24.7.7">
  <diagram id="R2lEEEUBdFMjLlhIrx00" name="Page-1">
    <mxGraphModel dx="1120" dy="468" grid="1" gridSize="10" guides="1" tooltips="1" connect="1" arrows="1" fold="1" page="1" pageScale="1" pageWidth="850" pageHeight="1100" math="0" shadow="0" extFonts="Permanent Marker^https://fonts.googleapis.com/css?family=Permanent+Marker">
      <root>
        <mxCell id="0" />
        <mxCell id="1" parent="0" />
        <mxCell id="ShBWlJT7m7TDXHpU9PTt-14" style="edgeStyle=orthogonalEdgeStyle;rounded=0;orthogonalLoop=1;jettySize=auto;html=1;exitX=0.5;exitY=0;exitDx=0;exitDy=0;entryX=0.5;entryY=1;entryDx=0;entryDy=0;" edge="1" parent="1" source="ShBWlJT7m7TDXHpU9PTt-1" target="ShBWlJT7m7TDXHpU9PTt-8">
          <mxGeometry relative="1" as="geometry" />
        </mxCell>
        <mxCell id="ShBWlJT7m7TDXHpU9PTt-15" style="edgeStyle=orthogonalEdgeStyle;rounded=0;orthogonalLoop=1;jettySize=auto;html=1;exitX=1;exitY=0;exitDx=0;exitDy=0;entryX=0;entryY=1;entryDx=0;entryDy=0;" edge="1" parent="1" source="ShBWlJT7m7TDXHpU9PTt-1" target="ShBWlJT7m7TDXHpU9PTt-7">
          <mxGeometry relative="1" as="geometry" />
        </mxCell>
        <mxCell id="ShBWlJT7m7TDXHpU9PTt-17" style="edgeStyle=orthogonalEdgeStyle;rounded=0;orthogonalLoop=1;jettySize=auto;html=1;exitX=0.5;exitY=1;exitDx=0;exitDy=0;entryX=0.5;entryY=0;entryDx=0;entryDy=0;" edge="1" parent="1" source="ShBWlJT7m7TDXHpU9PTt-1" target="ShBWlJT7m7TDXHpU9PTt-10">
          <mxGeometry relative="1" as="geometry" />
        </mxCell>
        <mxCell id="ShBWlJT7m7TDXHpU9PTt-18" style="edgeStyle=orthogonalEdgeStyle;rounded=0;orthogonalLoop=1;jettySize=auto;html=1;exitX=1;exitY=1;exitDx=0;exitDy=0;entryX=0;entryY=0;entryDx=0;entryDy=0;" edge="1" parent="1" source="ShBWlJT7m7TDXHpU9PTt-1" target="ShBWlJT7m7TDXHpU9PTt-11">
          <mxGeometry relative="1" as="geometry" />
        </mxCell>
        <mxCell id="ShBWlJT7m7TDXHpU9PTt-21" style="edgeStyle=orthogonalEdgeStyle;rounded=0;orthogonalLoop=1;jettySize=auto;html=1;exitX=1;exitY=0.5;exitDx=0;exitDy=0;entryX=0;entryY=0.5;entryDx=0;entryDy=0;" edge="1" parent="1" source="ShBWlJT7m7TDXHpU9PTt-1" target="ShBWlJT7m7TDXHpU9PTt-9">
          <mxGeometry relative="1" as="geometry" />
        </mxCell>
        <mxCell id="ShBWlJT7m7TDXHpU9PTt-1" value="livro" style="whiteSpace=wrap;html=1;align=center;" vertex="1" parent="1">
          <mxGeometry x="230" y="90" width="100" height="40" as="geometry" />
        </mxCell>
        <mxCell id="ShBWlJT7m7TDXHpU9PTt-49" style="edgeStyle=orthogonalEdgeStyle;rounded=0;orthogonalLoop=1;jettySize=auto;html=1;exitX=0;exitY=0.5;exitDx=0;exitDy=0;entryX=0.5;entryY=1;entryDx=0;entryDy=0;" edge="1" parent="1" source="ShBWlJT7m7TDXHpU9PTt-4" target="ShBWlJT7m7TDXHpU9PTt-40">
          <mxGeometry relative="1" as="geometry" />
        </mxCell>
        <mxCell id="ShBWlJT7m7TDXHpU9PTt-50" style="edgeStyle=orthogonalEdgeStyle;rounded=0;orthogonalLoop=1;jettySize=auto;html=1;exitX=0;exitY=0.5;exitDx=0;exitDy=0;entryX=0.5;entryY=0;entryDx=0;entryDy=0;" edge="1" parent="1" source="ShBWlJT7m7TDXHpU9PTt-4" target="ShBWlJT7m7TDXHpU9PTt-39">
          <mxGeometry relative="1" as="geometry" />
        </mxCell>
        <mxCell id="ShBWlJT7m7TDXHpU9PTt-4" value="aluno" style="whiteSpace=wrap;html=1;align=center;" vertex="1" parent="1">
          <mxGeometry x="100" y="410" width="100" height="40" as="geometry" />
        </mxCell>
        <mxCell id="ShBWlJT7m7TDXHpU9PTt-47" style="edgeStyle=orthogonalEdgeStyle;rounded=0;orthogonalLoop=1;jettySize=auto;html=1;exitX=1;exitY=0.5;exitDx=0;exitDy=0;" edge="1" parent="1" source="ShBWlJT7m7TDXHpU9PTt-5" target="ShBWlJT7m7TDXHpU9PTt-43">
          <mxGeometry relative="1" as="geometry">
            <Array as="points">
              <mxPoint x="380" y="430" />
            </Array>
          </mxGeometry>
        </mxCell>
        <mxCell id="ShBWlJT7m7TDXHpU9PTt-48" style="edgeStyle=orthogonalEdgeStyle;rounded=0;orthogonalLoop=1;jettySize=auto;html=1;exitX=1;exitY=0.5;exitDx=0;exitDy=0;" edge="1" parent="1" source="ShBWlJT7m7TDXHpU9PTt-5" target="ShBWlJT7m7TDXHpU9PTt-44">
          <mxGeometry relative="1" as="geometry">
            <mxPoint x="420" y="420" as="targetPoint" />
            <Array as="points">
              <mxPoint x="380" y="430" />
              <mxPoint x="380" y="380" />
            </Array>
          </mxGeometry>
        </mxCell>
        <mxCell id="ShBWlJT7m7TDXHpU9PTt-5" value="professor" style="whiteSpace=wrap;html=1;align=center;" vertex="1" parent="1">
          <mxGeometry x="235" y="410" width="100" height="40" as="geometry" />
        </mxCell>
        <mxCell id="ShBWlJT7m7TDXHpU9PTt-6" value="bibliotecaria" style="whiteSpace=wrap;html=1;align=center;" vertex="1" parent="1">
          <mxGeometry x="30" y="150" width="100" height="40" as="geometry" />
        </mxCell>
        <mxCell id="ShBWlJT7m7TDXHpU9PTt-37" style="edgeStyle=orthogonalEdgeStyle;rounded=0;orthogonalLoop=1;jettySize=auto;html=1;exitX=1;exitY=0.5;exitDx=0;exitDy=0;entryX=0;entryY=0.5;entryDx=0;entryDy=0;" edge="1" parent="1" source="ShBWlJT7m7TDXHpU9PTt-7" target="ShBWlJT7m7TDXHpU9PTt-35">
          <mxGeometry relative="1" as="geometry" />
        </mxCell>
        <mxCell id="ShBWlJT7m7TDXHpU9PTt-7" value="&lt;span style=&quot;color: rgb(38, 38, 38); font-family: &amp;quot;Open Sans&amp;quot;, sans-serif; font-size: 14px; text-align: left; white-space-collapse: preserve; background-color: rgb(255, 255, 255);&quot;&gt;status&lt;/span&gt;" style="ellipse;whiteSpace=wrap;html=1;align=center;" vertex="1" parent="1">
          <mxGeometry x="340" y="30" width="70" height="30" as="geometry" />
        </mxCell>
        <mxCell id="ShBWlJT7m7TDXHpU9PTt-8" value="&lt;span style=&quot;color: rgb(38, 38, 38); font-family: &amp;quot;Open Sans&amp;quot;, sans-serif; font-size: 14px; text-align: left; white-space-collapse: preserve; background-color: rgb(255, 255, 255);&quot;&gt; ISBN&lt;/span&gt;" style="ellipse;whiteSpace=wrap;html=1;align=center;" vertex="1" parent="1">
          <mxGeometry x="245" y="40" width="70" height="30" as="geometry" />
        </mxCell>
        <mxCell id="ShBWlJT7m7TDXHpU9PTt-9" value="&lt;span style=&quot;color: rgb(38, 38, 38); font-family: &amp;quot;Open Sans&amp;quot;, sans-serif; font-size: 14px; text-align: left; white-space-collapse: preserve; background-color: rgb(255, 255, 255);&quot;&gt;editora&lt;/span&gt;" style="ellipse;whiteSpace=wrap;html=1;align=center;" vertex="1" parent="1">
          <mxGeometry x="365" y="95" width="70" height="30" as="geometry" />
        </mxCell>
        <mxCell id="ShBWlJT7m7TDXHpU9PTt-10" value="&lt;span style=&quot;color: rgb(38, 38, 38); font-family: &amp;quot;Open Sans&amp;quot;, sans-serif; font-size: 14px; text-align: left; white-space-collapse: preserve; background-color: rgb(255, 255, 255);&quot;&gt; autor&lt;/span&gt;" style="ellipse;whiteSpace=wrap;html=1;align=center;" vertex="1" parent="1">
          <mxGeometry x="250" y="145" width="70" height="30" as="geometry" />
        </mxCell>
        <mxCell id="ShBWlJT7m7TDXHpU9PTt-11" value="&lt;div&gt;&lt;span style=&quot;color: rgb(38, 38, 38); font-family: &amp;quot;Open Sans&amp;quot;, sans-serif; font-size: 14px; text-align: left; white-space-collapse: preserve; background-color: rgb(255, 255, 255);&quot;&gt;tÃ­tulo&lt;/span&gt;&lt;br&gt;&lt;/div&gt;" style="ellipse;whiteSpace=wrap;html=1;align=center;" vertex="1" parent="1">
          <mxGeometry x="335" y="145" width="60" height="30" as="geometry" />
        </mxCell>
        <mxCell id="ShBWlJT7m7TDXHpU9PTt-13" value="biblioteca" style="whiteSpace=wrap;html=1;align=center;" vertex="1" parent="1">
          <mxGeometry x="35" y="60" width="100" height="40" as="geometry" />
        </mxCell>
        <mxCell id="ShBWlJT7m7TDXHpU9PTt-29" style="edgeStyle=orthogonalEdgeStyle;rounded=0;orthogonalLoop=1;jettySize=auto;html=1;exitX=1;exitY=0;exitDx=0;exitDy=0;entryX=0;entryY=1;entryDx=0;entryDy=0;" edge="1" parent="1" source="ShBWlJT7m7TDXHpU9PTt-22" target="ShBWlJT7m7TDXHpU9PTt-23">
          <mxGeometry relative="1" as="geometry" />
        </mxCell>
        <mxCell id="ShBWlJT7m7TDXHpU9PTt-30" style="edgeStyle=orthogonalEdgeStyle;rounded=0;orthogonalLoop=1;jettySize=auto;html=1;exitX=1;exitY=0.5;exitDx=0;exitDy=0;entryX=0;entryY=0.5;entryDx=0;entryDy=0;" edge="1" parent="1" source="ShBWlJT7m7TDXHpU9PTt-22" target="ShBWlJT7m7TDXHpU9PTt-24">
          <mxGeometry relative="1" as="geometry" />
        </mxCell>
        <mxCell id="ShBWlJT7m7TDXHpU9PTt-31" style="edgeStyle=orthogonalEdgeStyle;rounded=0;orthogonalLoop=1;jettySize=auto;html=1;exitX=1;exitY=1;exitDx=0;exitDy=0;entryX=0;entryY=0;entryDx=0;entryDy=0;" edge="1" parent="1" source="ShBWlJT7m7TDXHpU9PTt-22" target="ShBWlJT7m7TDXHpU9PTt-25">
          <mxGeometry relative="1" as="geometry" />
        </mxCell>
        <mxCell id="ShBWlJT7m7TDXHpU9PTt-32" style="edgeStyle=orthogonalEdgeStyle;rounded=0;orthogonalLoop=1;jettySize=auto;html=1;exitX=0.5;exitY=1;exitDx=0;exitDy=0;" edge="1" parent="1" source="ShBWlJT7m7TDXHpU9PTt-22" target="ShBWlJT7m7TDXHpU9PTt-4">
          <mxGeometry relative="1" as="geometry">
            <Array as="points">
              <mxPoint x="215" y="330" />
              <mxPoint x="145" y="330" />
            </Array>
          </mxGeometry>
        </mxCell>
        <mxCell id="ShBWlJT7m7TDXHpU9PTt-33" style="edgeStyle=orthogonalEdgeStyle;rounded=0;orthogonalLoop=1;jettySize=auto;html=1;exitX=0.5;exitY=1;exitDx=0;exitDy=0;" edge="1" parent="1" source="ShBWlJT7m7TDXHpU9PTt-22" target="ShBWlJT7m7TDXHpU9PTt-5">
          <mxGeometry relative="1" as="geometry" />
        </mxCell>
        <mxCell id="ShBWlJT7m7TDXHpU9PTt-22" value="pessoa" style="whiteSpace=wrap;html=1;align=center;" vertex="1" parent="1">
          <mxGeometry x="165" y="250" width="100" height="40" as="geometry" />
        </mxCell>
        <mxCell id="ShBWlJT7m7TDXHpU9PTt-23" value="nome" style="ellipse;whiteSpace=wrap;html=1;align=center;" vertex="1" parent="1">
          <mxGeometry x="265" y="200" width="60" height="30" as="geometry" />
        </mxCell>
        <mxCell id="ShBWlJT7m7TDXHpU9PTt-24" value="RG" style="ellipse;whiteSpace=wrap;html=1;align=center;" vertex="1" parent="1">
          <mxGeometry x="280" y="260" width="45" height="20" as="geometry" />
        </mxCell>
        <mxCell id="ShBWlJT7m7TDXHpU9PTt-25" value="telefone" style="ellipse;whiteSpace=wrap;html=1;align=center;" vertex="1" parent="1">
          <mxGeometry x="265" y="310" width="75" height="30" as="geometry" />
        </mxCell>
        <mxCell id="ShBWlJT7m7TDXHpU9PTt-27" value="trabalha" style="shape=rhombus;perimeter=rhombusPerimeter;whiteSpace=wrap;html=1;align=center;" vertex="1" parent="1">
          <mxGeometry x="35" y="100" width="90" height="50" as="geometry" />
        </mxCell>
        <mxCell id="ShBWlJT7m7TDXHpU9PTt-28" value="universidade" style="whiteSpace=wrap;html=1;align=center;" vertex="1" parent="1">
          <mxGeometry x="35" width="100" height="40" as="geometry" />
        </mxCell>
        <mxCell id="ShBWlJT7m7TDXHpU9PTt-34" value="nÃ£o disponivel" style="ellipse;whiteSpace=wrap;html=1;align=center;" vertex="1" parent="1">
          <mxGeometry x="450" y="50" width="85" height="40" as="geometry" />
        </mxCell>
        <mxCell id="ShBWlJT7m7TDXHpU9PTt-35" value="disponivel" style="ellipse;whiteSpace=wrap;html=1;align=center;" vertex="1" parent="1">
          <mxGeometry x="450" y="5" width="65" height="30" as="geometry" />
        </mxCell>
        <mxCell id="ShBWlJT7m7TDXHpU9PTt-38" style="edgeStyle=orthogonalEdgeStyle;rounded=0;orthogonalLoop=1;jettySize=auto;html=1;exitX=1;exitY=0.5;exitDx=0;exitDy=0;entryX=0;entryY=0.75;entryDx=0;entryDy=0;entryPerimeter=0;" edge="1" parent="1" source="ShBWlJT7m7TDXHpU9PTt-7" target="ShBWlJT7m7TDXHpU9PTt-34">
          <mxGeometry relative="1" as="geometry" />
        </mxCell>
        <mxCell id="ShBWlJT7m7TDXHpU9PTt-39" value="curso" style="ellipse;whiteSpace=wrap;html=1;align=center;" vertex="1" parent="1">
          <mxGeometry x="25" y="465" width="70" height="30" as="geometry" />
        </mxCell>
        <mxCell id="ShBWlJT7m7TDXHpU9PTt-40" value="matricula" style="ellipse;whiteSpace=wrap;html=1;align=center;" vertex="1" parent="1">
          <mxGeometry x="20" y="380" width="80" height="30" as="geometry" />
        </mxCell>
        <mxCell id="ShBWlJT7m7TDXHpU9PTt-43" value="departamento" style="ellipse;whiteSpace=wrap;html=1;align=center;" vertex="1" parent="1">
          <mxGeometry x="335" y="460" width="85" height="40" as="geometry" />
        </mxCell>
        <mxCell id="ShBWlJT7m7TDXHpU9PTt-44" value="matricula" style="ellipse;whiteSpace=wrap;html=1;align=center;" vertex="1" parent="1">
          <mxGeometry x="337.5" y="370" width="80" height="40" as="geometry" />
        </mxCell>
        <mxCell id="ShBWlJT7m7TDXHpU9PTt-51" value="registra" style="shape=rhombus;perimeter=rhombusPerimeter;whiteSpace=wrap;html=1;align=center;" vertex="1" parent="1">
          <mxGeometry x="20" y="190" width="120" height="50" as="geometry" />
        </mxCell>
      </root>
    </mxGraphModel>
  </diagram>
</mxfile>
